<?xml version="1.0" encoding="UTF-8" standalone="no"?>
<svg
   width="960"
   height="256"
   viewBox="0 0 254 67.733335"
   version="1.1"
   id="svg8"
   inkscape:version="1.2.2 (b0a8486541, 2022-12-01)"
   sodipodi:docname="hyprload_header.svg"
   xmlns:inkscape="http://www.inkscape.org/namespaces/inkscape"
   xmlns:sodipodi="http://sodipodi.sourceforge.net/DTD/sodipodi-0.dtd"
   xmlns:xlink="http://www.w3.org/1999/xlink"
   xmlns="http://www.w3.org/2000/svg"
   xmlns:svg="http://www.w3.org/2000/svg"
   xmlns:rdf="http://www.w3.org/1999/02/22-rdf-syntax-ns#"
   xmlns:cc="http://creativecommons.org/ns#"
   xmlns:dc="http://purl.org/dc/elements/1.1/">
  <defs
     id="defs2">
    <linearGradient
       inkscape:collect="always"
       id="linearGradient1523">
      <stop
         style="stop-color:#00a0ff;stop-opacity:1"
         offset="0"
         id="stop1519" />
      <stop
         style="stop-color:#00f0f0;stop-opacity:1"
         offset="1"
         id="stop1521" />
    </linearGradient>
    <linearGradient
       inkscape:collect="always"
       xlink:href="#linearGradient1523"
       id="linearGradient1525"
       x1="1.7035409"
       y1="63.819721"
       x2="61.825016"
       y2="3.5567846"
       gradientUnits="userSpaceOnUse"
       gradientTransform="matrix(1.1246898,0,0,1.1245671,-1.7908483,-3.9151158)" />
    <linearGradient
       inkscape:collect="always"
       xlink:href="#linearGradient1523"
       id="linearGradient1535"
       x1="-0.037798423"
       y1="67.582146"
       x2="67.676636"
       y2="0.30238101"
       gradientUnits="userSpaceOnUse" />
    <linearGradient
       gradientUnits="userSpaceOnUse"
       y2="0.30238101"
       x2="67.676636"
       y1="67.582146"
       x1="-0.037798423"
       id="linearGradient1535-4"
       xlink:href="#linearGradient1523"
       inkscape:collect="always"
       gradientTransform="translate(1.6761581e-6)" />
    <linearGradient
       gradientTransform="translate(3.0728248e-6)"
       inkscape:collect="always"
       xlink:href="#linearGradient1523"
       id="linearGradient1535-4-0"
       x1="-0.037798423"
       y1="67.582146"
       x2="67.676636"
       y2="0.30238101"
       gradientUnits="userSpaceOnUse" />
    <linearGradient
       gradientUnits="userSpaceOnUse"
       y2="0.30238101"
       x2="67.676636"
       y1="67.582146"
       x1="-0.037798423"
       id="linearGradient1535-6"
       xlink:href="#linearGradient1523"
       inkscape:collect="always" />
    <linearGradient
       gradientTransform="matrix(1.1246898,0,0,1.1245671,-1.7908479,-3.9151145)"
       gradientUnits="userSpaceOnUse"
       y2="3.5567846"
       x2="61.825016"
       y1="63.819721"
       x1="1.7035409"
       id="linearGradient1525-7"
       xlink:href="#linearGradient1523"
       inkscape:collect="always" />
    <linearGradient
       gradientUnits="userSpaceOnUse"
       y2="0.30238101"
       x2="67.676636"
       y1="67.582146"
       x1="-0.037798423"
       id="linearGradient1535-64"
       xlink:href="#linearGradient1523"
       inkscape:collect="always" />
    <linearGradient
       gradientUnits="userSpaceOnUse"
       y2="0.30238101"
       x2="67.676636"
       y1="67.582146"
       x1="-0.037798423"
       id="linearGradient1535-4-0-0"
       xlink:href="#linearGradient1523"
       inkscape:collect="always"
       gradientTransform="translate(3.4970563e-6)" />
    <linearGradient
       gradientTransform="translate(1.7899495e-6)"
       inkscape:collect="always"
       xlink:href="#linearGradient1523"
       id="linearGradient1535-4-9"
       x1="-0.037798423"
       y1="67.582146"
       x2="67.676636"
       y2="0.30238101"
       gradientUnits="userSpaceOnUse" />
    <linearGradient
       inkscape:collect="always"
       xlink:href="#linearGradient1523"
       id="linearGradient1782"
       gradientUnits="userSpaceOnUse"
       x1="-0.037798423"
       y1="67.582146"
       x2="67.676636"
       y2="0.30238101" />
  </defs>
  <sodipodi:namedview
     fit-margin-right="512"
     id="base"
     pagecolor="#ffffff"
     bordercolor="#666666"
     borderopacity="1.0"
     inkscape:pageopacity="0.0"
     inkscape:pageshadow="2"
     inkscape:zoom="0.70000001"
     inkscape:cx="326.42857"
     inkscape:cy="-11.428571"
     inkscape:document-units="mm"
     inkscape:current-layer="layer1"
     inkscape:document-rotation="0"
     showgrid="false"
     units="px"
     inkscape:pagecheckerboard="true"
     inkscape:window-width="1896"
     inkscape:window-height="1015"
     inkscape:window-x="0"
     inkscape:window-y="0"
     inkscape:window-maximized="1"
     inkscape:showpageshadow="0"
     inkscape:deskcolor="#d1d1d1" />
  <metadata
     id="metadata5">
    <rdf:RDF>
      <cc:Work
         rdf:about="">
        <dc:format>image/svg+xml</dc:format>
        <dc:type
           rdf:resource="http://purl.org/dc/dcmitype/StillImage" />
      </cc:Work>
    </rdf:RDF>
  </metadata>
  <g
     inkscape:label="Layer 1"
     inkscape:groupmode="layer"
     id="layer1">
    <path
       id="path1402"
       style="fill:none;fill-opacity:1;stroke:url(#linearGradient1525);stroke-width:3.175;stroke-miterlimit:4;stroke-dasharray:none;stroke-opacity:1"
       d="m 33.667633,18.125959 c -5.672818,0.01561 -11.168146,3.386903 -13.747093,8.439927 -2.678122,4.994623 -2.32082,11.421147 0.891253,16.088598 3.160142,4.797903 9.106488,7.546695 14.80838,6.845509 5.688153,-0.576347 10.852003,-4.539142 12.891572,-9.878228 2.14211,-5.287888 1.066187,-11.688102 -2.684166,-15.986857 -2.978826,-3.51856 -7.549825,-5.591329 -12.159946,-5.508949 z" />
    <path
       style="fill:none;stroke:url(#linearGradient1535);stroke-width:3.175;stroke-linecap:round;stroke-linejoin:round;stroke-miterlimit:4;stroke-dasharray:none;stroke-opacity:1"
       d="M 28.575,12.7 V 5.2916667 H 39.158333 V 12.7"
       id="path1527"
       sodipodi:nodetypes="cccc" />
    <path
       sodipodi:nodetypes="cccc"
       id="path1527-7"
       d="m 39.158335,55.5625 v 7.408331 H 28.575 V 55.5625"
       style="fill:none;stroke:url(#linearGradient1535-4);stroke-width:3.175;stroke-linecap:round;stroke-linejoin:round;stroke-miterlimit:4;stroke-dasharray:none;stroke-opacity:1" />
    <path
       sodipodi:nodetypes="cccc"
       id="path1527-3"
       d="m 55.5625,28.575 h 7.408333 V 39.158333 H 55.5625"
       style="fill:none;stroke:url(#linearGradient1535-6);stroke-width:3.175;stroke-linecap:round;stroke-linejoin:round;stroke-miterlimit:4;stroke-dasharray:none;stroke-opacity:1" />
    <path
       style="fill:none;stroke:url(#linearGradient1535-4-0);stroke-width:3.175;stroke-linecap:round;stroke-linejoin:round;stroke-miterlimit:4;stroke-dasharray:none;stroke-opacity:1"
       d="M 12.699998,39.158335 H 5.2916666 V 28.575 h 7.4083314"
       id="path1527-7-5"
       sodipodi:nodetypes="cccc" />
    <path
       d="m 33.817231,29.969856 c -1.40444,0.0039 -2.764938,0.838508 -3.403417,2.089503 -0.663032,1.236537 -0.574573,2.827574 0.220651,3.983112 0.782368,1.187834 2.254526,1.868362 3.666163,1.694767 1.408237,-0.142689 2.68667,-1.123772 3.191613,-2.445588 0.53033,-1.309142 0.26396,-2.893665 -0.664528,-3.957924 -0.737479,-0.871102 -1.869138,-1.384265 -3.010482,-1.36387 z"
       style="fill:none;fill-opacity:1;stroke:url(#linearGradient1525-7);stroke-width:3.175;stroke-miterlimit:4;stroke-dasharray:none;stroke-opacity:1"
       id="path1402-3" />
    <path
       sodipodi:nodetypes="cccc"
       id="path1527-9"
       d="M 15.048207,22.905929 9.8097237,17.667447 17.29327,10.1839 l 5.238483,5.238483"
       style="fill:none;stroke:url(#linearGradient1535-64);stroke-width:3.175;stroke-linecap:round;stroke-linejoin:round;stroke-miterlimit:4;stroke-dasharray:none;stroke-opacity:1" />
    <path
       style="fill:none;stroke:url(#linearGradient1535-4-9);stroke-width:3.175;stroke-linecap:round;stroke-linejoin:round;stroke-miterlimit:4;stroke-dasharray:none;stroke-opacity:1"
       d="m 52.840119,45.730746 5.238481,5.238481 -7.483548,7.483548 -5.238481,-5.238481"
       id="path1527-7-8"
       sodipodi:nodetypes="cccc" />
    <path
       style="fill:none;stroke:url(#linearGradient1782);stroke-width:3.175;stroke-linecap:round;stroke-linejoin:round;stroke-miterlimit:4;stroke-dasharray:none;stroke-opacity:1"
       d="m 45.356571,15.048207 5.238483,-5.2384835 7.483547,7.4835465 -5.238484,5.238483"
       id="path1527-3-3"
       sodipodi:nodetypes="cccc" />
    <path
       sodipodi:nodetypes="cccc"
       id="path1527-7-5-0"
       d="M 22.531754,52.84012 17.293272,58.078601 9.8097245,50.595053 15.048206,45.356572"
       style="fill:none;stroke:url(#linearGradient1535-4-0-0);stroke-width:3.175;stroke-linecap:round;stroke-linejoin:round;stroke-miterlimit:4;stroke-dasharray:none;stroke-opacity:1" />
    <path
       id="path1963"
       style="font-weight:bold;font-size:33.8667px;line-height:1.25;font-family:'Hack NF';-inkscape-font-specification:'Hack NF Bold';fill:#ccddee;stroke-width:0.264583"
       d="M 92.000069 20.091797 L 92.000069 44.780729 L 96.741382 44.780729 L 96.741382 33.807756 C 96.741382 31.708022 98.265444 30.218311 100.39904 30.218311 C 101.44891 30.218311 102.22758 30.590489 102.76944 31.335555 C 103.20971 31.945155 103.31152 32.453201 103.31152 33.604667 L 103.31152 44.780729 L 108.05284 44.780729 L 108.05284 32.521012 C 108.05284 30.251946 107.44297 28.626478 106.1899 27.576611 C 105.14003 26.696078 103.61647 26.188066 102.09248 26.188066 C 99.755676 26.188066 98.062182 27.102139 96.741382 29.134139 L 96.741382 20.091797 L 92.000069 20.091797 z M 164.40702 20.091797 L 164.40702 44.780729 L 169.14833 44.780729 L 169.14833 20.091797 L 164.40702 20.091797 z M 224.79145 20.091797 L 224.79145 28.863354 C 223.60611 27.034555 222.04818 26.188066 219.74524 26.188066 C 215.37645 26.188066 212.05734 30.387619 212.05734 35.907886 C 212.05734 38.380152 212.80236 40.885943 214.02156 42.647009 C 215.27463 44.441942 217.51005 45.559493 219.74524 45.559493 C 222.04818 45.559493 223.60611 44.74711 224.79145 42.918311 L 224.79145 44.780729 L 229.53276 44.780729 L 229.53276 20.091797 L 224.79145 20.091797 z M 140.22607 26.188066 C 137.92314 26.188066 136.29773 27.169835 135.14627 29.201835 L 135.14627 26.492957 L 130.40496 26.492957 L 130.40496 52.163741 L 135.14627 52.163741 L 135.14627 42.61342 C 136.29773 44.64542 137.92314 45.593599 140.22607 45.593599 C 144.62873 45.593599 147.87986 41.462019 147.87986 35.907886 C 147.87986 33.334019 147.13484 30.759776 145.91564 29.066443 C 144.69644 27.339243 142.4274 26.188066 140.22607 26.188066 z M 161.08784 26.188066 C 158.92037 26.188066 157.05792 27.610135 156.00805 30.082402 L 156.00805 26.492957 L 151.26674 26.492957 L 151.26674 44.780729 L 156.00805 44.780729 L 156.00805 35.060909 C 156.00805 32.283843 157.39662 30.895272 160.17369 30.895272 C 160.68169 30.895272 161.02057 30.929067 161.66403 31.030664 L 161.66403 26.221655 C 161.3931 26.187785 161.29104 26.188066 161.08784 26.188066 z M 181.74653 26.188066 C 176.15853 26.188066 172.73829 29.879379 172.73829 35.873779 C 172.73829 41.902046 176.15877 45.559493 181.78064 45.559493 C 187.36863 45.559493 190.82298 41.901972 190.82298 36.009172 C 190.82298 29.811572 187.46999 26.188066 181.74653 26.188066 z M 201.42336 26.188066 C 196.47883 26.188066 193.90487 28.28768 193.60007 32.521012 L 198.17188 32.521012 C 198.40894 30.624479 199.18837 30.014705 201.52517 30.014705 C 203.35397 30.014705 204.26815 30.624335 204.26815 31.843534 C 204.26815 32.453135 203.96328 32.961387 203.45528 33.266187 C 202.81182 33.604853 202.81191 33.604721 200.4751 33.977254 L 198.57858 34.315735 C 194.95484 34.925335 193.19389 36.788456 193.19389 40.073523 C 193.19389 43.35859 195.39528 45.559493 198.74808 45.559493 C 200.78007 45.559493 202.60841 44.712967 204.30174 42.9519 C 204.30174 43.900167 204.40356 44.238863 204.84383 44.780729 L 209.99183 44.780729 L 209.99183 44.205054 C 209.17902 43.42612 208.90766 42.884448 208.90766 41.970048 L 208.90766 31.809945 C 208.90766 28.084611 206.3679 26.188066 201.42336 26.188066 z M 109.91525 26.492957 L 116.72259 45.525903 C 116.72259 47.422437 115.53759 48.709172 113.77652 48.709172 C 113.40398 48.709172 113.09909 48.641553 112.52336 48.506083 L 112.52336 52.061938 C 113.23456 52.163539 113.64107 52.197331 114.2168 52.197331 C 115.43601 52.197331 116.79059 51.960322 117.63726 51.621655 C 118.95806 51.079789 119.53362 50.33483 120.31255 48.133496 L 127.83096 26.492957 L 122.95425 26.492957 L 119.1612 39.802222 L 115.13096 26.492957 L 109.91525 26.492957 z M 181.78064 30.014705 C 184.38836 30.014705 186.08167 32.351608 186.08167 35.941475 C 186.08167 39.362008 184.32063 41.732853 181.78064 41.732853 C 179.20677 41.732853 177.47961 39.395913 177.47961 35.873779 C 177.47961 32.351646 179.20677 30.014705 181.78064 30.014705 z M 139.14241 30.150098 C 141.54694 30.150098 143.13855 32.453449 143.13855 35.975582 C 143.13855 39.328383 141.51308 41.631051 139.14241 41.631051 C 136.73787 41.631051 135.14627 39.328419 135.14627 35.907886 C 135.14627 32.453486 136.73787 30.150098 139.14241 30.150098 z M 220.79531 30.150098 C 223.19984 30.150098 224.79145 32.453449 224.79145 35.975582 C 224.79145 39.294516 223.16598 41.597461 220.79531 41.597461 C 218.42464 41.597461 216.79865 39.260685 216.79865 35.907886 C 216.79865 32.487352 218.42464 30.150098 220.79531 30.150098 z M 204.26815 36.144564 L 204.26815 37.431824 C 204.26815 40.175024 202.91323 41.732853 200.50869 41.732853 C 198.91695 41.732853 197.93521 40.886104 197.93521 39.531437 C 197.93521 38.109037 198.68033 37.43153 200.6446 37.02513 L 202.26982 36.720239 C 203.52289 36.483172 203.72629 36.415497 204.26815 36.144564 z " />
  </g>
</svg>
